<svg width="365" height="372" viewBox="0 0 365 372" fill="none" xmlns="http://www.w3.org/2000/svg">
<path d="M189.322 115.224L190.303 115.325L219.029 11.7588L203.659 118.204L204.598 118.506L253.973 23.2373L217.071 124.137L217.926 124.626L285.798 41.8213L228.97 132.763L229.707 133.418L313.111 66.7002L238.839 143.703L239.423 144.497L334.731 96.7793L246.246 156.481L246.651 157.38L349.691 130.761L250.867 170.539L251.074 171.503L357.342 167.151L252.501 185.263V186.248L357.341 204.357L251.074 200.007L250.867 200.971L349.691 240.748L246.651 214.13L246.246 215.028L334.731 274.729L239.423 227.013L238.839 227.807L313.115 304.812L229.707 238.092L228.97 238.748L285.798 329.688L217.926 246.885L217.071 247.373L253.973 348.271L204.598 253.004L203.659 253.306L219.029 359.75L190.303 256.185L189.322 256.287L182.495 363.632L175.668 256.287L174.686 256.185L145.96 359.75L161.331 253.306L160.391 253.004L111.015 348.271L147.919 247.373L147.063 246.885L79.1911 329.688L136.019 238.748L135.283 238.092L51.8737 304.812L126.15 227.807L125.566 227.013L30.2575 274.729L118.744 215.028L118.339 214.13L15.2975 240.748L114.123 200.971L113.916 200.007L7.64711 204.357L112.489 186.248V185.263L7.64613 167.151L113.916 171.503L114.123 170.539L15.2975 130.761L118.339 157.38L118.744 156.481L30.2575 96.7793L125.566 144.497L126.15 143.703L51.8776 66.7002L135.283 133.418L136.019 132.763L79.1911 41.8213L147.063 124.626L147.919 124.137L111.015 23.2373L160.391 118.506L161.331 118.204L145.96 11.7588L174.686 115.325L175.668 115.224L182.495 7.87695L189.322 115.224Z" stroke="white"/>
</svg>
