<svg width="10" height="10" viewBox="0 0 10 10" fill="none" xmlns="http://www.w3.org/2000/svg">
<path d="M9.84863 0.150391C9.83722 3.09345 9.84861 5.99792 9.84668 9.29297C9.18648 9.29475 8.3994 9.29271 7.66309 9.2959C7.66977 7.60989 7.6666 5.92315 7.66895 4.23828V3.875L7.41309 4.13184L1.85449 9.68945C1.63961 9.90406 1.23454 9.90348 1.0166 9.68555L0.313477 8.9834C0.0959379 8.76546 0.0950545 8.35955 0.30957 8.14453L0.310547 8.14551L5.86816 2.58789L6.12402 2.33105H0.698242C0.701088 1.56772 0.701954 0.935418 0.705078 0.152344C3.64381 0.161085 6.55534 0.152942 9.84863 0.150391Z" fill="white" stroke="white" stroke-width="0.3"/>
</svg>
